# xmcd CD database file
#
# Track frame offsets:
#	150
#	25262
#	38750
#	54712
#	65437
#	77787
#	95637
#	111425
#	123950
#	137600
#	148400
#	164950
#	177212
#	189975
#	199800
#	215800
#	228675
#	243387
#	252912
#	264575
#
# Disc length: 3646 seconds
#
# Revision: 3
# Processed by: cddbd v1.4PL0 Copyright (c) Steve Scherf et al.
# Submitted via: CDex 1.40Beta9
#
DISCID=380e3c14
DTITLE=Johnny Cash - Timeless Inspiration CD 2 of 3
DYEAR=1997
DGENRE=Country
TTITLE0=Man In White (overdubbed Version)
TTITLE1=I Never Met A Man Like You Before
TTITLE2=This Train Is Bound For Gloy
TTITLE3=You'll Get Yours And I'll Get Mine
TTITLE4=That's Enough
TTITLE5=The Greatest Cowboy Of Them All
TTITLE6=The Miracle Man
TTITLE7=When I've Learned
TTITLE8=If We Never Meet Again
TTITLE9=Daddy Sang Bass
TTITLE10=The Preacher Said, "jesus Said"
TTITLE11=Far Side Banks Of Jordan
TTITLE12=That Silver Haired Daddy Of Mine
TTITLE13=The Fourth Man
TTITLE14=When He Comes
TTITLE15=I'm Gonna Try To Be That Way
TTITLE16=No Eartly Good
TTITLE17=I Talk To Jesus Every Day
TTITLE18=Over The Next Hill
TTITLE19=Lay Me Down In Dixie
EXTD=YEAR: 1997 ID3G: 2
EXTT0=
EXTT1=
EXTT2=
EXTT3=
EXTT4=
EXTT5=
EXTT6=
EXTT7=
EXTT8=
EXTT9=
EXTT10=
EXTT11=
EXTT12=
EXTT13=
EXTT14=
EXTT15=
EXTT16=
EXTT17=
EXTT18=
EXTT19=
PLAYORDER=
